<svg width="263" height="158" viewBox="0 0 263 158" fill="none" xmlns="http://www.w3.org/2000/svg">
<path d="M209.688 225.464C209.497 223.256 208.537 221.336 208.345 219.224C208.057 216.536 206.809 214.616 205.081 212.888C201.817 209.528 198.169 206.552 194.329 203.864C192.601 202.712 190.969 201.464 189.337 200.216C184.537 196.472 179.641 192.824 174.841 189.176C170.329 185.72 165.433 182.744 161.209 178.712C156.505 174.2 151.225 170.36 145.945 166.424C138.265 160.664 130.489 155.192 122.713 149.624C112.633 142.328 102.553 135.128 92.3765 127.928C90.4565 126.488 88.3445 125.336 86.1365 123.992C84.9845 122.936 83.8325 121.592 82.3925 120.536C76.0565 115.64 69.5285 110.936 63.2885 105.944C58.6805 102.2 54.3605 98.072 49.9445 94.04C48.0245 92.216 46.2005 90.2 44.5685 87.992C42.3605 85.304 42.2645 82.712 45.9125 80.984C48.9845 79.64 52.0565 78.392 55.1285 77.24C62.5205 74.552 70.0085 72.056 77.4005 69.464C79.1285 68.792 80.8565 68.024 82.5845 67.16C84.2165 66.488 85.7525 65.624 87.3845 64.856C89.4965 63.992 91.7045 63.416 93.6245 62.264C97.9445 59.864 102.073 57.176 106.393 54.68C108.121 53.72 109.177 52.28 110.425 50.84C111.961 49.016 113.401 47 115.225 45.464C118.297 42.584 121.177 39.8 123.481 36.248C126.553 31.352 126.649 26.264 124.441 21.272C122.425 16.568 119.257 12.536 114.745 9.848C110.041 6.96799 104.953 5.144 99.2885 4.568C96.5045 4.27999 93.5285 4.952 90.9365 3.128C90.7445 3.03199 90.4565 3.03199 90.1685 3.03199L82.3925 2.744C82.1045 2.744 81.8165 3.03199 81.3365 3.128L82.6805 3.99199C79.8005 3.8 77.2085 3.608 74.6165 3.32C72.1205 3.03199 69.6245 3.128 67.3205 4.568C66.9365 4.85599 66.3605 4.952 65.8805 5.144C63.1925 5.816 60.5045 6.488 57.8165 7.256V8.696C55.7045 9.368 53.5925 9.944 51.5765 10.712C48.6965 11.768 45.7205 13.016 42.8405 14.168C42.5525 14.36 42.3605 14.744 41.8805 15.32C39.2885 15.992 36.1205 17.144 32.1845 16.184C35.3525 15.032 37.8485 14.072 40.4405 13.208C42.0725 12.728 43.4165 12.056 44.1845 10.712C48.2165 9.944 51.8645 8.216 55.8965 8.216L57.3365 5.816C56.0885 5.816 55.2245 5.62399 54.3605 5.816C49.3685 7.16 44.3765 8.6 39.2885 10.04C38.1365 10.424 36.9845 10.904 36.0245 11.288C35.9285 11.96 35.8325 12.344 35.7365 12.728C27.5765 14.168 20.7605 18.008 14.5205 23.192C13.9445 23.576 13.3685 23.96 12.7925 24.44C8.0885 27.992 4.2485 32.408 1.1765 37.4C0.3125 38.936 0.0245 40.376 0.2165 42.104C0.3125 43.16 0.2165 44.216 0.1205 45.272C0.1205 45.848 0.1205 46.52 0.2165 47.096C0.3125 48.248 0.5045 49.4 0.6965 50.552C1.1765 53.528 1.4645 56.696 3.8645 58.904C6.5525 61.4 9.5285 63.704 12.9845 65.144C14.1365 65.624 15.2885 65.816 16.1525 66.008C18.0725 64.856 18.5525 63.608 18.0725 61.88L16.5365 60.92L15.6725 58.136C14.1365 57.368 12.6965 56.792 11.3525 55.928C10.1045 55.16 8.8565 54.296 7.8005 53.336C5.1125 51.032 4.2485 47.768 5.4965 44.6C7.2245 40.184 9.9125 36.536 13.3685 33.368C18.2645 28.952 23.7365 25.4 29.6885 22.424C36.3125 19.16 43.1285 15.992 50.5205 14.552C52.1525 14.264 53.8805 14.168 55.6085 13.976C61.8485 13.112 68.0885 12.152 74.3285 11.48C82.2965 10.616 90.1685 11 98.0405 12.344C103.609 13.304 108.889 14.84 113.785 17.816C116.569 19.544 118.201 22.04 118.777 25.208C119.545 28.856 118.681 32.216 116.857 35.288C114.937 38.456 112.441 41.048 109.657 43.352C103.225 48.632 95.9285 52.568 88.4405 56.216C81.8165 59.384 74.7125 61.112 68.3765 64.664C65.6885 66.2 62.6165 67.256 59.6405 68.312C57.2405 69.08 54.6485 69.656 52.1525 70.232C50.8085 70.52 49.3685 70.712 48.0245 71C44.0885 71.96 40.9205 74.456 38.4245 77.336C34.9685 81.08 34.4885 83.96 36.3125 87.896C37.0805 89.528 38.0405 91.064 39.0005 92.6C41.4965 96.248 44.8565 99.224 48.0245 102.2C55.4165 109.304 63.0965 115.928 71.4485 121.88C75.3845 124.76 79.5125 127.544 83.4485 130.52C86.9045 133.208 90.2645 136.088 93.8165 138.776C95.9285 140.312 98.1365 141.656 100.249 143.192C105.049 146.552 109.753 150.104 114.457 153.464C132.217 166.136 150.073 178.712 167.737 191.576C174.937 196.76 181.945 202.328 188.953 207.896C192.985 211.064 196.729 214.52 200.569 217.88C202.393 219.512 203.353 221.624 203.257 224.12C203.257 224.984 203.545 225.944 203.641 226.808C203.737 226.904 203.833 227 203.929 227.192H204.985C205.369 228.632 205.945 229.976 208.057 229.592C209.593 228.632 209.881 227.192 209.688 225.464ZM13.1765 27.608C10.6805 29.72 8.3765 32.024 5.9765 34.232C9.8165 28.856 14.3285 24.152 20.6645 21.656C18.1685 23.672 15.5765 25.592 13.1765 27.608ZM59.6405 35C60.5045 33.752 61.5605 32.792 62.7125 31.352L60.8885 27.128L56.8565 31.16C56.8565 32.312 56.4725 33.368 55.4165 33.944C55.8005 35.096 55.2245 36.056 54.7445 37.016L51.5765 43.832C50.9045 44.984 51.4805 46.424 50.4245 47.48C49.7525 48.152 49.3685 49.016 48.5045 49.688C48.6965 48.92 48.9845 48.056 49.3685 46.712C48.5045 47.576 48.1205 48.056 47.5445 48.632C46.8725 47.096 47.6405 46.136 48.2165 45.176C50.1365 41.816 52.2485 38.456 54.1685 35C54.4565 34.52 54.6485 33.848 54.8405 33.272C54.6485 32.408 54.7445 31.544 55.6085 31.064C56.6645 28.568 58.4885 26.84 61.1765 25.592C60.5045 24.824 60.0245 24.152 59.4485 23.48C57.0485 25.208 55.7045 27.416 54.2645 29.624L30.2645 66.872C28.7285 69.368 27.1925 71.768 25.7525 74.264C24.6965 76.088 23.8325 78.104 22.7765 79.928C22.3925 80.504 21.6245 80.984 21.2405 81.56C20.0885 83.288 19.1285 85.112 17.9765 86.936C16.1525 89.72 14.3285 92.504 12.6005 95.384C9.6245 100.184 6.7445 104.984 3.8645 109.784L4.8245 111.992C4.3445 112.76 3.9605 113.528 3.4805 114.392H4.4405C4.3445 115.16 4.1525 116.024 5.4005 116.216C5.5925 115.352 5.8805 114.392 4.4405 114.488C4.6325 114.2 4.8245 113.912 5.0165 113.528C5.8805 114.2 6.4565 114.68 7.1285 115.352L8.5685 113.24C10.2965 110.168 11.9285 107.096 13.8485 104.216C17.4965 98.84 21.3365 93.656 24.9845 88.28C33.0485 76.28 40.5365 63.896 48.6005 51.896C52.3445 46.328 55.9925 40.568 59.6405 35ZM72.6965 67.256C74.1365 66.776 75.8645 66.968 77.9765 66.872C73.5605 68.888 69.4325 70.52 64.5365 70.712C67.5125 69.368 70.0085 68.12 72.6965 67.256ZM120.626 70.424C122.546 69.08 124.37 67.544 126.386 66.296C129.938 63.896 133.682 61.496 137.33 59.192C138.386 58.52 139.634 58.136 140.882 57.56C141.17 58.136 141.266 58.424 141.458 58.712C141.746 59 142.13 59.192 142.418 59.48C142.898 59.192 143.378 59 143.762 58.808C145.01 60.632 145.202 60.728 147.314 59.768C148.466 57.176 147.89 55.064 145.97 53.144C145.202 53.048 144.338 52.856 143.474 52.76C143.57 52.088 143.762 51.608 143.858 51.128C144.434 51.32 144.818 51.512 145.202 51.608C143.954 50.168 142.61 48.824 140.594 49.4C139.346 49.688 138.194 50.36 137.042 50.936C135.89 51.512 134.93 52.28 133.778 52.568C131.09 53.24 128.498 54.296 126.194 55.832C119.762 60.248 114.098 65.528 109.01 71.384C106.61 74.168 104.498 77.144 102.386 80.216C100.658 82.904 99.602 85.976 99.506 89.336C99.41 90.968 99.986 92.12 101.426 92.696C104.306 93.848 107.282 94.328 110.258 92.792C112.658 91.544 115.058 90.392 117.362 88.952C121.682 86.264 126.002 83.48 130.226 79.736C128.882 80.216 128.018 80.504 127.154 80.888C126.77 81.464 126.29 81.848 125.522 81.56C125.042 81.56 124.466 81.656 124.082 81.752C124.85 80.504 125.042 80.408 126.002 80.696C126.29 80.6 126.578 80.6 126.866 80.6L135.122 74.744C134.642 75.8 134.45 76.376 134.258 76.856L129.746 85.688C129.458 86.264 128.978 86.84 129.074 87.32C129.554 89.24 128.498 90.68 128.018 92.408C128.498 92.792 128.882 93.176 129.266 93.56C129.842 93.272 130.226 93.08 130.514 92.888L132.05 94.616C132.914 92.888 133.586 91.448 134.258 90.008C134.834 88.856 135.218 87.608 136.466 87.032C136.37 84.632 138.098 83.096 139.442 81.464C138.77 83.48 137.714 85.304 136.466 87.032C135.89 88.184 135.41 89.336 134.93 90.488C134.642 91.352 133.97 92.312 134.834 93.368C135.218 92.696 135.602 92.12 135.89 91.544L143.954 75.32C144.722 73.88 145.49 72.44 146.066 70.904C146.93 68.504 147.794 66.104 146.066 63.704C144.626 62.744 143.666 64.088 142.418 64.376L140.978 61.112C140.306 61.496 139.634 61.688 139.058 62.072L134.354 65.816C128.018 70.52 121.778 75.224 115.538 79.928C113.81 81.272 111.986 82.328 109.682 83.576C110.642 81.944 111.122 80.696 111.89 79.736C114.674 76.472 117.074 72.92 120.626 70.424ZM123.794 81.944L123.218 82.616C123.218 82.424 123.122 82.328 123.026 82.232L123.794 81.944ZM112.37 85.784C111.89 86.552 111.698 86.936 111.506 87.32C111.122 87.224 110.738 87.032 110.162 86.84L112.37 85.784ZM106.61 88.76C107.186 88.664 107.762 88.568 108.338 88.376C108.626 89.144 108.146 89.336 106.61 88.76ZM219.544 2.36L218.872 0.823994C216.856 2.36 215.896 3.32 215.128 5.528C213.976 8.696 212.152 11.48 210.616 14.456C210.04 15.704 208.888 16.088 208.312 17.048C206.776 19.352 205.336 21.752 204.088 24.248C201.688 29.048 199.288 33.944 197.176 38.936C195.448 43.16 192.376 46.52 189.784 50.264C186.04 50.072 182.584 51.032 179.32 52.376C168.856 56.888 160.696 63.992 154.36 73.304C151.576 77.432 149.368 81.848 148.984 86.936C148.888 88.76 149.272 90.2 150.808 90.968C153.304 92.12 155.896 93.176 158.776 92.024C161.656 90.968 164.248 89.336 166.648 87.416C173.272 82.232 178.936 76.184 184.504 69.848C184.984 69.272 185.56 68.696 186.136 68.12C186.136 69.368 185.848 70.328 185.464 71.384C184.504 74.264 183.352 77.24 182.488 80.216C181.816 82.424 181.624 84.824 181.336 87.128C181.24 87.992 181.432 88.856 181.816 89.624C182.2 90.296 182.968 90.584 183.832 90.392C184.024 90.296 184.312 90.584 184.504 90.68C186.616 91.736 188.056 91.544 189.496 89.72C191.896 86.744 193.72 83.384 194.776 79.448C193.72 78.2 192.664 76.952 191.608 75.8C191.704 75.416 191.704 75.224 191.704 75.128C194.68 65.528 198.232 56.12 202.168 46.904C202.36 46.424 202.648 45.944 202.936 45.56C208.024 38.648 212.44 31.352 216.664 23.96C219.544 18.872 222.328 13.688 224.056 8.024C225.112 4.75999 223 2.264 219.544 2.36ZM157.72 82.904C161.752 74.168 173.464 63.992 180.472 61.496C173.848 69.368 166.936 77.048 157.72 82.904ZM177.496 68.984C175.672 70.904 173.944 72.92 172.12 74.84L171.64 74.36C174.712 70.136 178.072 66.2 182.008 62.36C181.816 64.28 181.624 64.472 177.496 68.984ZM161.848 69.848C162.712 71.096 161.752 71.192 161.368 71.48L161.848 69.848ZM161.176 71.672C160.984 72.056 160.792 72.248 160.6 72.632C160.12 71.672 160.696 71.768 161.176 71.672ZM158.008 75.8L157.24 76.664C157.336 76.28 157.432 75.992 157.624 75.608C157.72 75.704 157.912 75.704 158.008 75.8ZM156.184 79.256L155.704 78.968C155.992 78.2 156.184 77.432 156.952 77.048L156.184 79.256ZM154.936 81.368L154.648 80.504C154.744 80.408 154.936 80.408 155.032 80.312L155.32 81.272C155.224 81.272 155.128 81.368 154.936 81.368ZM224.932 49.784C225.892 49.016 226.948 48.152 227.62 46.904C228.004 45.944 227.524 45.08 227.332 44.216C226.276 43.736 225.604 44.12 225.028 45.176C224.644 43.64 223.972 42.776 222.532 42.584C220.996 43.832 220.516 45.656 220.42 47.48C220.324 47.864 220.708 48.44 221.092 48.536C221.284 48.728 221.764 48.44 222.244 48.44C223.108 49.88 223.972 50.552 224.932 49.784ZM215.908 93.176C216.1 93.08 216.292 92.888 216.58 92.696C217.636 91.832 218.884 91.064 220.036 90.104C220.516 89.624 220.9 88.856 221.572 88.088C220.228 88.184 218.98 88.184 217.924 87.896C218.02 86.936 219.556 86.648 218.884 85.976L216.004 88.472C216.004 88.472 216.292 88.472 216.58 88.664C216.004 89.72 215.14 90.2 213.796 90.296C213.604 90.008 213.412 89.72 213.412 89.432C212.74 87.128 212.452 84.824 212.74 82.52C212.932 80.696 212.932 78.872 213.7 77.144C213.796 76.856 213.7 76.376 213.7 75.992C213.7 74.936 213.508 73.784 213.892 72.92C214.948 70.232 216.292 67.832 217.636 65.048L218.02 66.104C218.788 64.952 219.364 63.704 220.036 62.648C220.42 61.976 220.804 61.496 221.284 61.016C222.436 59.96 222.532 59.48 221.956 57.752C221.38 57.464 220.9 57.752 220.612 58.328C220.42 59.096 219.556 58.328 219.172 58.904C218.884 59.288 218.5 59.672 218.116 60.056L217.06 59.384C218.308 58.328 219.268 57.656 220.228 56.792C219.748 56.408 218.308 56.024 217.924 55.64C216.676 56.792 215.716 58.232 215.044 59.672C214.372 60.92 213.892 62.168 213.22 63.416C210.052 69.176 207.172 75.032 206.596 81.656C206.404 84.536 206.116 87.416 207.172 90.2C208.516 94.04 212.356 95.192 215.908 93.176ZM260.293 61.688C257.989 58.328 252.036 56.504 248.389 61.592C248.773 61.784 249.061 61.976 249.541 62.36C248.101 62.936 246.757 63.416 245.317 63.896C245.605 63.032 245.797 62.648 246.181 61.592L240.997 64.184C241.285 63.032 241.861 61.88 242.533 60.92C243.589 59.672 245.029 58.52 243.781 56.6C243.685 56.504 244.165 56.024 244.165 55.64C244.165 55.256 244.069 54.776 243.973 54.392C242.533 56.6 240.997 58.328 239.557 60.44C239.941 58.52 240.325 56.6 239.269 54.872C240.037 54.104 240.805 53.432 241.669 52.664C241.093 51.992 240.805 51.704 240.229 51.224C237.541 54.008 235.909 57.272 234.181 60.536C234.661 60.536 235.045 60.44 235.237 60.44L232.645 65.336C230.821 68.984 228.709 72.632 227.845 76.664C227.365 78.584 226.885 80.504 226.597 82.424C226.501 83.96 227.269 84.632 228.709 84.056C229.477 83.768 230.148 83 230.629 82.424C236.389 75.8 243.205 70.616 251.173 66.968C252.421 66.392 253.669 65.912 255.397 66.2C255.493 67.256 255.685 68.216 255.589 69.272C255.397 70.424 255.109 71.672 254.725 72.728C254.725 73.112 254.533 73.688 254.245 73.88C252.901 75.224 252.709 77.048 252.325 78.68C251.461 81.56 250.693 84.344 250.021 87.224L247.525 97.496C247.141 99.416 247.621 100.28 249.445 101.144C249.829 101.336 250.309 101.432 250.597 101.816C251.749 103.16 253.189 102.872 254.341 102.296C255.877 100.76 256.357 99.32 255.877 97.4C255.589 96.632 255.781 95.672 255.973 94.808L257.125 90.296C258.757 83.768 260.389 77.336 262.117 70.808C262.981 67.448 262.117 64.376 260.293 61.688ZM235.429 60.344C235.429 60.056 235.333 59.864 235.429 59.672C235.717 59.288 236.005 59.096 236.197 58.712C236.773 59.672 236.101 60.056 235.429 60.344Z" fill="#222222" fill-opacity="0.05"/>
</svg>
