<svg width="108" height="154" viewBox="0 0 108 154" fill="none" xmlns="http://www.w3.org/2000/svg">
<path style="mix-blend-mode:multiply" opacity="0.05" d="M18.9101 -54.37C34.1901 -41.81 41.4901 -23.44 41.9101 -3.89002C42.4701 20.27 33.7301 43.73 24.8101 65.78C16.4001 86.57 7.23009 107.14 1.89009 129.01C-0.309911 138.01 -1.10991 149.01 9.39009 152.74C17.6201 155.64 27.4901 152.14 35.1901 149.13C44.0001 145.7 52.3301 141.13 60.6501 136.7C70.0601 131.7 79.8401 127.33 89.5601 122.92C114.89 111.44 140.56 100.72 166.69 91.15C174.023 88.4833 181.393 85.8967 188.8 83.39V-60.27H10.7001C13.5584 -58.4784 16.3005 -56.5078 18.9101 -54.37Z" fill="url(#paint0_linear_992_16621)" fill-opacity="0.5"/>
<defs>
<linearGradient id="paint0_linear_992_16621" x1="44773.7" y1="47122.1" x2="97119.3" y2="-5702.75" gradientUnits="userSpaceOnUse">
<stop stop-color="#2F046B"/>
<stop offset="1" stop-color="#11DCCA"/>
</linearGradient>
</defs>
</svg>
